<svg id="Layer_1" data-name="Layer 1" xmlns="http://www.w3.org/2000/svg" viewBox="0 0 303.87 245.76"><defs><style>.cls-1{fill:none;stroke:#ca2535;stroke-miterlimit:10;stroke-width:6px;}.cls-2{isolation:isolate;}.cls-3{fill:#fff;}</style></defs><title>choose</title><path id="Tekengebied_2" data-name="Tekengebied 2" class="cls-1" d="M276.58,242.76H38.42V4.58L204.26,76.9Z"/><g class="cls-2"><path class="cls-3" d="M38.39,40.8h6.8L37.47,69.28H27.8L23,49.16,18.12,69.28H8.4L.64,40.8H7.48l6,23,5.76-23h7.44l5.63,23Z"/><path class="cls-3" d="M50.32,69.28V40.8H57v11H68.8v-11h6.72V69.28H68.8v-12H57v12Z"/><path class="cls-3" d="M89.24,69.28H82.52V40.8h6.72Z"/><path class="cls-3" d="M124.27,59.48c-1,6.28-6.87,10.8-14.15,10.8-8.8,0-15.2-6.4-15.2-15.24s6.4-15.24,15.2-15.24c7.2,0,13.11,4.64,14.11,11.08L118,51.6a7.85,7.85,0,0,0-7.68-6c-5.08,0-8.64,3.92-8.64,9.48s3.6,9.48,8.64,9.48A8,8,0,0,0,118,58.68Z"/><path class="cls-3" d="M130,69.28V40.8h6.72v11h11.76v-11h6.71V69.28h-6.71v-12H136.68v12Z"/></g><g class="cls-2"><path class="cls-3" d="M9.28,108.08v10.2H2.56V89.8H22v5.76H9.28V103H19.6v5.12Z"/><path class="cls-3" d="M47.44,112.88v5.4H27V89.8H47v5.4H33.52v6.12H45.44V106H33.52v6.84Z"/><path class="cls-3" d="M52,108.92h6c0,3.08,2.76,5.28,6.6,5.28,3.32,0,5.32-1.64,5.32-3.68,0-6-17.68-1-17.68-12.28,0-5.6,4.76-9.44,11.64-9.44S75.83,93,75.83,98.68H70c0-2.8-2.48-4.8-5.92-4.8-3.16,0-5.28,1.48-5.28,3.48,0,5.8,17.72.8,17.72,12.2,0,5.68-4.84,9.72-12.08,9.72S52,114.92,52,108.92Z"/><path class="cls-3" d="M79,95.4V89.8h23.84v5.6H94.28v22.88H87.56V95.4Z"/><path class="cls-3" d="M114,118.28h-6.72V89.8H114Z"/><path class="cls-3" d="M132.8,113.32,140,89.8h7l-9.11,28.48H127.68L118.52,89.8h7Z"/><path class="cls-3" d="M175.07,118.28h-7l-1.68-5.16H154.92l-1.6,5.16h-7.08L155.8,89.8h9.76Zm-18.71-10H165l-4.32-12.72Z"/><path class="cls-3" d="M179.6,118.28V89.8h6.72v22.72h11.91v5.76Z"/><path class="cls-3" d="M242.59,118.28h-7l-1.68-5.16H222.44l-1.6,5.16h-7.08l9.56-28.48h9.75Zm-18.71-10h8.64L228.2,95.56Z"/><path class="cls-3" d="M247.12,89.8h13.8c6.59,0,11.19,3.88,11.19,9.48a8.56,8.56,0,0,1-6.24,8.12l6.88,10.88h-7.52l-5.59-10h-5.8v10h-6.72Zm6.72,5.08v8.68h6c3.15,0,5.56-1.72,5.56-4.28,0-2.8-2.41-4.4-5.56-4.4Z"/><path class="cls-3" d="M298.87,112.88v5.4H278.48V89.8h20v5.4H285v6.12h11.91V106H285v6.84Z"/></g><g class="cls-2"><path class="cls-3" d="M0,138.8H7.12l6.32,12.64,6-12.64h7.24L16.8,157.36v9.92H10.08v-9.92Z"/><path class="cls-3" d="M43.28,137.8C52.6,137.8,59,144,59,153s-6.43,15.24-15.75,15.24S27.52,162.08,27.52,153,33.92,137.8,43.28,137.8Zm0,24.72c5.32,0,9-3.92,9-9.48s-3.72-9.48-9-9.48-9,3.92-9,9.48S38,162.48,43.28,162.52Z"/><path class="cls-3" d="M83.24,138.8H90v16.68c0,7.56-5.19,12.8-12.71,12.8s-12.8-5.24-12.8-12.8V138.8H71.2v16.52c0,3.68,2.2,7.12,6,7.2,3.6,0,6-3,6-7.2Z"/><path class="cls-3" d="M135.83,167.28h-7l-1.67-5.16H115.68l-1.6,5.16H107l9.56-28.48h9.76Zm-18.71-10h8.64l-4.32-12.72Z"/><path class="cls-3" d="M135.36,144.4v-5.6h23.83v5.6h-8.55v22.88h-6.72V144.4Z"/><path class="cls-3" d="M170.28,159c0-4.24,1.36-6.28,4-8.08,1.6-1.08,3.16-2.16,3.16-4.08a3.86,3.86,0,0,0-4.08-3.76c-2.68,0-4.6,2.2-5,5.2l-6-1.12c.56-5.4,5-9.32,11.24-9.32,5.92,0,10.39,3.56,10.39,8.52,0,3.52-2.07,5.56-4.87,7.2C177,154.76,175.8,156,175.8,159Zm2.76,2.2a3.4,3.4,0,1,1-3.48,3.4A3.32,3.32,0,0,1,173,161.16Z"/><path class="cls-3" d="M209,158.44v8.84h-6.48V138.8h12.76c6.63,0,11.23,4,11.23,9.84s-4.64,9.8-11.27,9.8Zm0-14.56v9.48h5c3.36,0,5.76-2,5.76-4.72s-2.36-4.76-5.76-4.76Z"/><path class="cls-3" d="M238.56,167.28h-6.72V138.8h6.72Z"/><path class="cls-3" d="M273.59,157.48c-1,6.28-6.88,10.8-14.15,10.8-8.8,0-15.2-6.4-15.2-15.24s6.4-15.24,15.2-15.24c7.19,0,13.11,4.64,14.11,11.08l-6.28.72a7.85,7.85,0,0,0-7.67-6c-5.08,0-8.64,3.92-8.64,9.48s3.6,9.48,8.64,9.48a8,8,0,0,0,7.71-5.84Z"/><path class="cls-3" d="M286,138.8v11.6l9.47-11.6h8.12L292,152.48l11.88,14.8h-8.16L286,154.72v12.56h-6.72V138.8Z"/></g><g class="cls-2"><path class="cls-3" d="M17,186.8c9.32,0,15.75,6.24,15.75,15.24S26.32,217.28,17,217.28,1.24,211.08,1.24,202,7.64,186.8,17,186.8Zm0,24.72c5.32,0,9-3.92,9-9.48s-3.72-9.48-9-9.48S8,196.48,8,202,11.68,211.48,17,211.52Z"/><path class="cls-3" d="M57.32,208.16V187.8h6.39v28.48H56.2L44.84,196v20.32H38.48V187.8H46Z"/><path class="cls-3" d="M91.12,210.88v5.4H70.72V187.8h20v5.4H77.2v6.12H89.12V204H77.2v6.84Z"/></g></svg>