<svg id="Layer_1" data-name="Layer 1" xmlns="http://www.w3.org/2000/svg" viewBox="0 0 211.16 42.06"><defs><style>.cls-1{fill:none;stroke:#fff;stroke-miterlimit:10;stroke-width:3px;}.cls-2{isolation:isolate;}.cls-3{fill:#fff;}</style></defs><title>mobilelogo</title><path id="Tekengebied_2" data-name="Tekengebied 2" class="cls-1" d="M39.77,40.56H1.5V2.29L28.15,13.91Z"/><g class="cls-2"><path class="cls-3" d="M57.05,40.24V14.61h8l7.24,18.76,7.16-18.76h8.1V40.24H81.63V21.92L74.54,40.24H70L63,21.92V40.24Z"/><path class="cls-3" d="M110,13.71c8.38,0,14.18,5.62,14.18,13.72S118.35,41.14,110,41.14,95.79,35.56,95.79,27.43,101.54,13.71,110,13.71ZM110,36c4.78,0,8.13-3.53,8.13-8.53s-3.35-8.54-8.13-8.54-8.14,3.53-8.14,8.54S105.18,35.92,110,36Z"/><path class="cls-3" d="M141.9,35.78l6.51-21.17h6.3l-8.2,25.63h-9.22l-8.24-25.63h6.3Z"/><path class="cls-3" d="M180.24,35.38v4.86H161.88V14.61h18v4.86H167.71V25h10.73v4.25H167.71v6.15Z"/><path class="cls-3" d="M205.4,32.93V14.61h5.76V40.24h-6.77L194.17,22V40.24h-5.72V14.61h6.77Z"/></g></svg>